<svg width="56" height="51" viewBox="0 0 56 51" fill="none" xmlns="http://www.w3.org/2000/svg">
<rect width="56" height="51" rx="5" fill="#FFFDF7"/>
<path d="M35.96 22.5579C35.96 23.9758 35.2109 25.3289 33.8629 26.3597C32.514 27.3912 30.6071 28.0579 28.46 28.0579C26.3128 28.0579 24.4059 27.3912 23.057 26.3597C21.709 25.3289 20.96 23.9758 20.96 22.5579C20.96 21.1399 21.709 19.7868 23.057 18.756C24.4059 17.7245 26.3128 17.0579 28.46 17.0579C30.6071 17.0579 32.514 17.7245 33.8629 18.756C35.2109 19.7868 35.96 21.1399 35.96 22.5579Z" stroke="#3D3D3D" stroke-width="2"/>
<path d="M21.783 15.1469L19.9342 14.516C18.3892 13.9887 16.9194 15.4936 17.4344 17.0754L18.0506 18.9682C18.5152 20.3951 20.2842 20.8227 21.323 19.7591L22.5555 18.4972C23.5944 17.4336 23.1768 15.6226 21.783 15.1469Z" stroke="#3D3D3D" stroke-width="2"/>
<path d="M38.8231 18.9207L39.4393 17.0279C39.9543 15.4461 38.4845 13.9412 36.9395 14.4685L35.0907 15.0995C33.6969 15.5751 33.2793 17.3862 34.3182 18.4498L35.5507 19.7116C36.5895 20.7752 38.3585 20.3477 38.8231 18.9207Z" stroke="#3D3D3D" stroke-width="2"/>
<path d="M49 25.7351C49 37.2414 39.7812 47 28.5 47C17.2188 47 8 37.2414 8 25.7351C8 14.259 17.1894 4.9762 28.5 4.9762C39.8106 4.9762 49 14.259 49 25.7351Z" stroke="#3D3D3D" stroke-width="2"/>
<path d="M31 41H26V29H31V41Z" stroke="#3D3D3D" stroke-width="2"/>
<path d="M14.6034 27.5448C18.8548 27.4632 17.4346 34.6563 26.1067 37.0222" stroke="#3D3D3D" stroke-width="2"/>
</svg>
