<svg width="56" height="51" viewBox="0 0 56 51" fill="none" xmlns="http://www.w3.org/2000/svg">
<rect width="56" height="51" rx="5" fill="#FFFDF7"/>
<path d="M23.6191 18.3496L22.7088 17.9358L22.7035 17.9474L22.6986 17.9591L23.6191 18.3496ZM23.0859 19.1426L23.7785 19.864L23.7858 19.8569L23.793 19.8497L23.0859 19.1426ZM22.2793 19.6758L22.6698 20.5964L22.6764 20.5936L22.6829 20.5907L22.2793 19.6758ZM20.3242 19.6758L19.9104 20.5861L19.9268 20.5936L19.9435 20.6005L20.3242 19.6758ZM19.5312 19.1426L18.8099 19.8351L18.824 19.8498L18.8387 19.864L19.5312 19.1426ZM18.998 18.3496L18.0775 18.7402L18.0824 18.7519L18.0877 18.7634L18.998 18.3496ZM18.998 16.4219L18.0831 16.0182L18.0803 16.0248L18.0775 16.0313L18.998 16.4219ZM19.5312 15.6289L20.2384 16.336L19.5312 15.6289ZM20.3242 15.0957L20.7148 16.0163L20.7213 16.0135L20.7279 16.0106L20.3242 15.0957ZM22.2793 15.0957L21.8655 16.0061L21.8819 16.0135L21.8985 16.0204L22.2793 15.0957ZM23.0859 15.6289L22.3788 16.336L22.386 16.3432L22.3934 16.3503L23.0859 15.6289ZM23.6191 16.4219L22.6945 16.8026L22.7013 16.8193L22.7088 16.8357L23.6191 16.4219ZM23.1816 36V37H24.1816V36H23.1816ZM19.4219 36H18.4219V37H19.4219V36ZM19.4219 21.3574V20.3574H18.4219V21.3574H19.4219ZM23.1816 21.3574H24.1816V20.3574H23.1816V21.3574ZM22.8242 17.3789C22.8242 17.5896 22.7836 17.7712 22.7088 17.9358L24.5295 18.7634C24.7281 18.3264 24.8242 17.861 24.8242 17.3789H22.8242ZM22.6986 17.9591C22.6204 18.1433 22.5146 18.2997 22.3788 18.4355L23.793 19.8497C24.113 19.5297 24.3627 19.1575 24.5397 18.7402L22.6986 17.9591ZM22.3934 18.4212C22.2557 18.5534 22.0865 18.6679 21.8757 18.7609L22.6829 20.5907C23.0919 20.4103 23.4604 20.1693 23.7785 19.864L22.3934 18.4212ZM21.8887 18.7552C21.7188 18.8273 21.5289 18.8672 21.3086 18.8672V20.8672C21.781 20.8672 22.2382 20.7795 22.6698 20.5964L21.8887 18.7552ZM21.3086 18.8672C21.0884 18.8672 20.89 18.8273 20.705 18.7511L19.9435 20.6005C20.3782 20.7795 20.8361 20.8672 21.3086 20.8672V18.8672ZM20.738 18.7654C20.5354 18.6733 20.3664 18.5581 20.2238 18.4212L18.8387 19.864C19.1518 20.1646 19.5115 20.4048 19.9104 20.5861L20.738 18.7654ZM20.2526 18.45C20.1157 18.3074 20.0005 18.1384 19.9084 17.9358L18.0877 18.7634C18.269 19.1623 18.5093 19.522 18.8099 19.8351L20.2526 18.45ZM19.9186 17.9591C19.8465 17.7891 19.8066 17.5993 19.8066 17.3789H17.8066C17.8066 17.8513 17.8943 18.3085 18.0775 18.7402L19.9186 17.9591ZM19.8066 17.3789C19.8066 17.1714 19.8451 16.9857 19.9186 16.8124L18.0775 16.0313C17.8958 16.4596 17.8066 16.9119 17.8066 17.3789H19.8066ZM19.913 16.8255C20.0045 16.618 20.115 16.4594 20.2384 16.336L18.8241 14.9218C18.51 15.2359 18.265 15.606 18.0831 16.0182L19.913 16.8255ZM20.2384 16.336C20.3741 16.2003 20.5306 16.0944 20.7148 16.0163L19.9337 14.1751C19.5163 14.3522 19.1441 14.6018 18.8241 14.9218L20.2384 16.336ZM20.7279 16.0106C20.9077 15.9313 21.098 15.8906 21.3086 15.8906V13.8906C20.8265 13.8906 20.3606 13.9867 19.9206 14.1808L20.7279 16.0106ZM21.3086 15.8906C21.5192 15.8906 21.7009 15.9313 21.8655 16.0061L22.6931 14.1853C22.2561 13.9867 21.7906 13.8906 21.3086 13.8906V15.8906ZM21.8985 16.0204C22.0913 16.0998 22.2481 16.2052 22.3788 16.336L23.793 14.9218C23.4681 14.5968 23.087 14.3468 22.66 14.171L21.8985 16.0204ZM22.3934 16.3503C22.515 16.4671 22.6165 16.6132 22.6945 16.8026L24.5438 16.0411C24.3666 15.6108 24.1126 15.2283 23.7785 14.9075L22.3934 16.3503ZM22.7088 16.8357C22.7852 17.0038 22.8242 17.1814 22.8242 17.3789H24.8242C24.8242 16.902 24.7265 16.4416 24.5295 16.0081L22.7088 16.8357ZM23.1816 35H19.4219V37H23.1816V35ZM20.4219 36V21.3574H18.4219V36H20.4219ZM19.4219 22.3574H23.1816V20.3574H19.4219V22.3574ZM22.1816 21.3574V36H24.1816V21.3574H22.1816Z" fill="#3D3D3D"/>
<path d="M30.1543 36V37H31.1543V36H30.1543ZM26.4219 36H25.4219V37H26.4219V36ZM26.4219 21.3574V20.3574H25.4219V21.3574H26.4219ZM27.3242 21.3574L28.0804 20.703L27.7813 20.3574H27.3242V21.3574ZM28.5547 22.7793L27.7985 23.4337L28.4691 24.2086L29.2274 23.5192L28.5547 22.7793ZM30.5918 21.5215L30.9515 22.4546L30.9574 22.4522L30.5918 21.5215ZM35.5137 21.5898L35.1134 22.5063L35.1223 22.5101L35.5137 21.5898ZM37.5918 22.998L36.8793 23.6998L36.8847 23.7052L37.5918 22.998ZM38.9863 25.0898L38.0644 25.4775L38.0699 25.4901L38.9863 25.0898ZM39.5059 36V37H40.5059V36H39.5059ZM35.7734 36H34.7734V37H35.7734V36ZM35.5547 26.5527L34.633 26.9408L34.6368 26.9496L35.5547 26.5527ZM31.877 25.0488L31.4889 24.1272L31.877 25.0488ZM30.373 26.5527L31.2909 26.9497L31.2947 26.9408L30.373 26.5527ZM30.1543 35H26.4219V37H30.1543V35ZM27.4219 36V21.3574H25.4219V36H27.4219ZM26.4219 22.3574H27.3242V20.3574H26.4219V22.3574ZM26.5681 22.0118L27.7985 23.4337L29.3109 22.1249L28.0804 20.703L26.5681 22.0118ZM29.2274 23.5192C29.7377 23.0553 30.3107 22.7016 30.9515 22.4545L30.2321 20.5884C29.3599 20.9247 28.5748 21.4096 27.882 22.0394L29.2274 23.5192ZM30.9574 22.4522C31.6056 22.1976 32.279 22.0703 32.9844 22.0703V20.0703C32.0309 20.0703 31.1092 20.2438 30.2261 20.5907L30.9574 22.4522ZM32.9844 22.0703C33.7444 22.0703 34.4508 22.2168 35.1134 22.5062L35.9139 20.6734C34.9906 20.2702 34.0108 20.0703 32.9844 20.0703V22.0703ZM35.1223 22.5101C35.7975 22.7972 36.3805 23.1933 36.8793 23.6997L38.3043 22.2964C37.6182 21.5997 36.8158 21.0569 35.905 20.6696L35.1223 22.5101ZM36.8847 23.7052C37.382 24.2025 37.7755 24.7901 38.0645 25.4774L39.9082 24.7023C39.5227 23.7854 38.9865 22.9785 38.2989 22.2909L36.8847 23.7052ZM38.0699 25.4901C38.3588 26.1514 38.5059 26.8622 38.5059 27.6328H40.5059C40.5059 26.5987 40.3066 25.6142 39.9027 24.6896L38.0699 25.4901ZM38.5059 27.6328V36H40.5059V27.6328H38.5059ZM39.5059 35H35.7734V37H39.5059V35ZM36.7734 36V27.6328H34.7734V36H36.7734ZM36.7734 27.6328C36.7734 27.1193 36.6748 26.6236 36.4725 26.1558L34.6368 26.9496C34.7262 27.1563 34.7734 27.3807 34.7734 27.6328H36.7734ZM36.4763 26.1647C36.2824 25.7041 36.0107 25.2937 35.6602 24.9433L34.246 26.3575C34.406 26.5175 34.5353 26.7087 34.6331 26.9408L36.4763 26.1647ZM35.6602 24.9433C35.3142 24.5973 34.9122 24.3259 34.4614 24.131L33.6675 25.9667C33.8912 26.0634 34.0816 26.1931 34.246 26.3575L35.6602 24.9433ZM34.4614 24.131C33.9936 23.9287 33.4979 23.8301 32.9844 23.8301V25.8301C33.2365 25.8301 33.4609 25.8773 33.6675 25.9667L34.4614 24.131ZM32.9844 23.8301C32.465 23.8301 31.9633 23.9274 31.4889 24.1272L32.265 25.9705C32.4833 25.8786 32.7199 25.8301 32.9844 25.8301V23.8301ZM31.4889 24.1272C31.0283 24.3211 30.6179 24.5928 30.2675 24.9433L31.6817 26.3575C31.8417 26.1975 32.0329 26.0682 32.265 25.9705L31.4889 24.1272ZM30.2675 24.9433C29.9171 25.2937 29.6453 25.7041 29.4514 26.1647L31.2947 26.9408C31.3924 26.7087 31.5217 26.5175 31.6817 26.3575L30.2675 24.9433ZM29.4552 26.1558C29.2529 26.6236 29.1543 27.1193 29.1543 27.6328H31.1543C31.1543 27.3807 31.2015 27.1563 31.2909 26.9496L29.4552 26.1558ZM29.1543 27.6328V36H31.1543V27.6328H29.1543Z" fill="#3D3D3D"/>
<circle cx="28.43" cy="26.43" r="20.43" stroke="#3D3D3D" stroke-width="2"/>
</svg>
