<svg width="56" height="51" viewBox="0 0 56 51" fill="none" xmlns="http://www.w3.org/2000/svg">
<rect width="56" height="51" rx="5" fill="#FFFDF7"/>
<path d="M37.4648 36.416C36.293 37.4238 34.9805 38.1973 33.5273 38.7363C32.0742 39.2754 30.5684 39.5449 29.0098 39.5449C27.8145 39.5449 26.6602 39.3867 25.5469 39.0703C24.4453 38.7656 23.4082 38.332 22.4355 37.7695C21.4746 37.1953 20.5957 36.5098 19.7988 35.7129C19.002 34.916 18.3164 34.0371 17.7422 33.0762C17.1797 32.1035 16.7402 31.0664 16.4238 29.9648C16.1191 28.8516 15.9668 27.6973 15.9668 26.502C15.9668 25.3066 16.1191 24.1523 16.4238 23.0391C16.7402 21.9258 17.1797 20.8887 17.7422 19.9277C18.3164 18.9551 19.002 18.0703 19.7988 17.2734C20.5957 16.4766 21.4746 15.7969 22.4355 15.2344C23.4082 14.6602 24.4453 14.2207 25.5469 13.916C26.6602 13.5996 27.8145 13.4414 29.0098 13.4414C30.5684 13.4414 32.0742 13.7109 33.5273 14.25C34.9805 14.7773 36.293 15.5508 37.4648 16.5703L34.793 20.9648C34.0547 20.168 33.1816 19.5586 32.1738 19.1367C31.166 18.7031 30.1113 18.4863 29.0098 18.4863C27.8965 18.4863 26.8535 18.6973 25.8809 19.1191C24.9082 19.541 24.0586 20.1152 23.332 20.8418C22.6055 21.5566 22.0312 22.4062 21.6094 23.3906C21.1875 24.3633 20.9766 25.4004 20.9766 26.502C20.9766 27.6035 21.1875 28.6406 21.6094 29.6133C22.0312 30.5742 22.6055 31.418 23.332 32.1445C24.0586 32.8711 24.9082 33.4453 25.8809 33.8672C26.8535 34.2891 27.8965 34.5 29.0098 34.5C30.1113 34.5 31.166 34.2891 32.1738 33.8672C33.1816 33.4336 34.0547 32.8184 34.793 32.0215L37.4648 36.416Z" fill="#E07C7C"/>
<path d="M37.4648 36.416L38.7689 37.9324L40.055 36.8264L39.1738 35.377L37.4648 36.416ZM25.5469 39.0703L26.0937 37.1465L26.08 37.1427L25.5469 39.0703ZM22.4355 37.7695L21.4096 39.4864L21.4219 39.4937L21.4343 39.5009L22.4355 37.7695ZM17.7422 33.0762L16.0109 34.0774L16.018 34.0898L16.0254 34.1021L17.7422 33.0762ZM16.4238 29.9648L14.4948 30.4928L14.4981 30.5049L14.5016 30.517L16.4238 29.9648ZM16.4238 23.0391L14.5 22.4923L14.4973 22.5017L14.4948 22.5111L16.4238 23.0391ZM17.7422 19.9277L16.0199 18.911L16.0162 18.9174L17.7422 19.9277ZM22.4355 15.2344L23.4459 16.9604L23.4523 16.9566L22.4355 15.2344ZM25.5469 13.916L26.0801 15.8437L26.0936 15.8398L25.5469 13.916ZM33.5273 14.25L32.8317 16.1251L32.8384 16.1276L32.8451 16.13L33.5273 14.25ZM37.4648 16.5703L39.1738 17.6093L40.0499 16.1683L38.7776 15.0614L37.4648 16.5703ZM34.793 20.9648L33.3258 22.3241L35.1259 24.267L36.5019 22.0039L34.793 20.9648ZM32.1738 19.1367L31.3834 20.9739L31.3925 20.9778L31.4016 20.9816L32.1738 19.1367ZM23.332 20.8418L24.7347 22.2675L24.7405 22.2618L24.7462 22.256L23.332 20.8418ZM21.6094 23.3906L23.4442 24.1865L23.4477 24.1785L21.6094 23.3906ZM21.6094 29.6133L19.7745 30.4091L19.7781 30.4173L21.6094 29.6133ZM32.1738 33.8672L32.9461 35.7121L32.9552 35.7083L32.9642 35.7044L32.1738 33.8672ZM34.793 32.0215L36.5019 30.9825L35.1259 28.7193L33.3258 30.6622L34.793 32.0215ZM36.1608 34.8996C35.1693 35.7523 34.063 36.4044 32.8317 36.8612L34.223 40.6115C35.898 39.9901 37.4166 39.0954 38.7689 37.9324L36.1608 34.8996ZM32.8317 36.8612C31.6025 37.3172 30.3323 37.5449 29.0098 37.5449V41.5449C30.8044 41.5449 32.5459 41.2336 34.223 40.6115L32.8317 36.8612ZM29.0098 37.5449C27.9933 37.5449 27.0233 37.4107 26.0936 37.1465L25.0001 40.9941C26.297 41.3627 27.6357 41.5449 29.0098 41.5449V37.5449ZM26.08 37.1427C25.1394 36.8825 24.2599 36.5142 23.4368 36.0382L21.4343 39.5009C22.5565 40.1499 23.7512 40.6487 25.0137 40.9979L26.08 37.1427ZM23.4615 36.0527C22.6429 35.5635 21.8942 34.9799 21.213 34.2987L18.3846 37.1271C19.2972 38.0397 20.3063 38.8271 21.4096 39.4864L23.4615 36.0527ZM21.213 34.2987C20.5319 33.6175 19.9482 32.8688 19.459 32.0503L16.0254 34.1021C16.6846 35.2054 17.4721 36.2145 18.3846 37.1271L21.213 34.2987ZM19.4735 32.0749C18.9944 31.2464 18.6183 30.3605 18.3461 29.4127L14.5016 30.517C14.8621 31.7723 15.365 32.9606 16.0109 34.0774L19.4735 32.0749ZM18.3529 29.4369C18.0969 28.5017 17.9668 27.5253 17.9668 26.502H13.9668C13.9668 27.8692 14.1413 29.2014 14.4948 30.4928L18.3529 29.4369ZM17.9668 26.502C17.9668 25.4786 18.0969 24.5022 18.3529 23.567L14.4948 22.5111C14.1413 23.8025 13.9668 25.1347 13.9668 26.502H17.9668ZM18.3476 23.5858C18.6198 22.6284 18.9942 21.7478 19.4682 20.9381L16.0162 18.9174C15.3651 20.0295 14.8607 21.2232 14.5 22.4923L18.3476 23.5858ZM19.4645 20.9445C19.9533 20.1164 20.5354 19.3653 21.213 18.6877L18.3846 15.8592C17.4685 16.7754 16.6795 17.7937 16.0199 18.911L19.4645 20.9445ZM21.213 18.6877C21.8906 18.0101 22.6341 17.4356 23.4459 16.9604L21.4252 13.5083C20.3151 14.1582 19.3008 14.9431 18.3846 15.8592L21.213 18.6877ZM23.4523 16.9566C24.2717 16.4729 25.146 16.102 26.08 15.8436L25.0137 11.9884C23.7446 12.3394 22.5447 12.8474 21.4188 13.5121L23.4523 16.9566ZM26.0936 15.8398C27.0233 15.5756 27.9933 15.4414 29.0098 15.4414V11.4414C27.6357 11.4414 26.297 11.6236 25.0001 11.9922L26.0936 15.8398ZM29.0098 15.4414C30.3323 15.4414 31.6025 15.6691 32.8317 16.1251L34.223 12.3749C32.5459 11.7527 30.8044 11.4414 29.0098 11.4414V15.4414ZM32.8451 16.13C34.0659 16.5731 35.1649 17.2203 36.1521 18.0792L38.7776 15.0614C37.4211 13.8813 35.8951 12.9816 34.2096 12.37L32.8451 16.13ZM35.7559 15.5313L33.084 19.9258L36.5019 22.0039L39.1738 17.6093L35.7559 15.5313ZM36.2601 19.6056C35.3264 18.5978 34.216 17.8234 32.9461 17.2918L31.4016 20.9816C32.1473 21.2938 32.783 21.7381 33.3258 22.3241L36.2601 19.6056ZM32.9642 17.2995C31.7057 16.7581 30.382 16.4863 29.0098 16.4863V20.4863C29.8407 20.4863 30.6263 20.6482 31.3834 20.9739L32.9642 17.2995ZM29.0098 16.4863C27.6367 16.4863 26.3214 16.7481 25.085 17.2843L26.6767 20.954C27.3857 20.6465 28.1563 20.4863 29.0098 20.4863V16.4863ZM25.085 17.2843C23.8891 17.803 22.8279 18.5175 21.9178 19.4276L24.7462 22.256C25.2893 21.713 25.9273 21.279 26.6767 20.954L25.085 17.2843ZM21.9294 19.4161C21.0082 20.3224 20.2901 21.3918 19.7711 22.6028L23.4477 24.1785C23.7724 23.4207 24.2027 22.7909 24.7347 22.2675L21.9294 19.4161ZM19.7745 22.5948C19.2395 23.8284 18.9766 25.1375 18.9766 26.502H22.9766C22.9766 25.6633 23.1355 24.8981 23.4442 24.1865L19.7745 22.5948ZM18.9766 26.502C18.9766 27.8664 19.2395 29.1755 19.7745 30.4091L23.4442 28.8174C23.1355 28.1058 22.9766 27.3406 22.9766 26.502H18.9766ZM19.7781 30.4173C20.2977 31.6008 21.0117 32.6527 21.9178 33.5587L24.7462 30.7303C24.1992 30.1833 23.7648 29.5476 23.4407 28.8093L19.7781 30.4173ZM21.9178 33.5587C22.8279 34.4688 23.8891 35.1833 25.085 35.702L26.6767 32.0323C25.9273 31.7073 25.2893 31.2734 24.7462 30.7303L21.9178 33.5587ZM25.085 35.702C26.3214 36.2383 27.6367 36.5 29.0098 36.5V32.5C28.1563 32.5 27.3857 32.3399 26.6767 32.0323L25.085 35.702ZM29.0098 36.5C30.3742 36.5 31.6916 36.2372 32.9461 35.7121L31.4016 32.0223C30.6404 32.3409 29.8484 32.5 29.0098 32.5V36.5ZM32.9642 35.7044C34.2259 35.1616 35.3301 34.3845 36.2601 33.3807L33.3258 30.6622C32.7792 31.2522 32.1374 31.7056 31.3834 32.03L32.9642 35.7044ZM33.084 33.0605L35.7559 37.455L39.1738 35.377L36.5019 30.9825L33.084 33.0605Z" fill="#3D3D3D"/>
<circle cx="28.43" cy="26.43" r="20.43" stroke="#3D3D3D" stroke-width="2"/>
</svg>
